<mxfile host="app.diagrams.net" agent="Mozilla/5.0 (Macintosh; Intel Mac OS X 10_15_7) AppleWebKit/537.36 (KHTML, like Gecko) Chrome/127.0.0.0 Safari/537.36" version="24.7.7">
  <diagram name="第 1 页" id="-R74stWvV-uGR1ocCa0s">
    <mxGraphModel dx="896" dy="594" grid="1" gridSize="10" guides="1" tooltips="1" connect="1" arrows="1" fold="1" page="1" pageScale="1" pageWidth="827" pageHeight="1169" math="0" shadow="0">
      <root>
        <mxCell id="0" />
        <mxCell id="1" parent="0" />
        <mxCell id="QH9-boY5FQvzRluYM9Ri-35" value="" style="rounded=0;whiteSpace=wrap;html=1;opacity=0;" vertex="1" parent="1">
          <mxGeometry y="130" width="880" height="490" as="geometry" />
        </mxCell>
        <mxCell id="QH9-boY5FQvzRluYM9Ri-11" value="&lt;span style=&quot;text-wrap: nowrap;&quot;&gt;redisObject&lt;/span&gt;" style="rounded=0;whiteSpace=wrap;html=1;" vertex="1" parent="1">
          <mxGeometry x="160" y="160" width="80" height="40" as="geometry" />
        </mxCell>
        <mxCell id="QH9-boY5FQvzRluYM9Ri-1" value="type" style="rounded=0;whiteSpace=wrap;html=1;" vertex="1" parent="1">
          <mxGeometry x="160" y="200" width="80" height="40" as="geometry" />
        </mxCell>
        <mxCell id="QH9-boY5FQvzRluYM9Ri-2" value="encoding" style="rounded=0;whiteSpace=wrap;html=1;" vertex="1" parent="1">
          <mxGeometry x="160" y="240" width="80" height="40" as="geometry" />
        </mxCell>
        <mxCell id="QH9-boY5FQvzRluYM9Ri-13" style="edgeStyle=orthogonalEdgeStyle;rounded=0;orthogonalLoop=1;jettySize=auto;html=1;entryX=0;entryY=0.5;entryDx=0;entryDy=0;curved=1;" edge="1" parent="1" source="QH9-boY5FQvzRluYM9Ri-3" target="QH9-boY5FQvzRluYM9Ri-12">
          <mxGeometry relative="1" as="geometry" />
        </mxCell>
        <mxCell id="QH9-boY5FQvzRluYM9Ri-3" value="ptr" style="rounded=0;whiteSpace=wrap;html=1;" vertex="1" parent="1">
          <mxGeometry x="160" y="280" width="80" height="40" as="geometry" />
        </mxCell>
        <mxCell id="QH9-boY5FQvzRluYM9Ri-4" value="..." style="rounded=0;whiteSpace=wrap;html=1;" vertex="1" parent="1">
          <mxGeometry x="160" y="320" width="80" height="40" as="geometry" />
        </mxCell>
        <mxCell id="QH9-boY5FQvzRluYM9Ri-5" value="len" style="rounded=0;whiteSpace=wrap;html=1;" vertex="1" parent="1">
          <mxGeometry x="320" y="200" width="80" height="40" as="geometry" />
        </mxCell>
        <mxCell id="QH9-boY5FQvzRluYM9Ri-6" value="alloc" style="rounded=0;whiteSpace=wrap;html=1;" vertex="1" parent="1">
          <mxGeometry x="320" y="240" width="80" height="40" as="geometry" />
        </mxCell>
        <mxCell id="QH9-boY5FQvzRluYM9Ri-7" value="flags" style="rounded=0;whiteSpace=wrap;html=1;" vertex="1" parent="1">
          <mxGeometry x="320" y="280" width="80" height="40" as="geometry" />
        </mxCell>
        <mxCell id="QH9-boY5FQvzRluYM9Ri-8" value="buf: &quot;hello\0&quot;" style="rounded=0;whiteSpace=wrap;html=1;" vertex="1" parent="1">
          <mxGeometry x="320" y="320" width="160" height="40" as="geometry" />
        </mxCell>
        <mxCell id="QH9-boY5FQvzRluYM9Ri-12" value="&lt;span style=&quot;text-wrap: nowrap;&quot;&gt;sdshdr&lt;/span&gt;" style="rounded=0;whiteSpace=wrap;html=1;" vertex="1" parent="1">
          <mxGeometry x="320" y="160" width="80" height="40" as="geometry" />
        </mxCell>
        <mxCell id="QH9-boY5FQvzRluYM9Ri-21" value="&lt;font style=&quot;font-size: 18px;&quot;&gt;raw 编码&lt;/font&gt;" style="text;html=1;align=center;verticalAlign=middle;resizable=0;points=[];autosize=1;strokeColor=none;fillColor=none;" vertex="1" parent="1">
          <mxGeometry x="35" y="253" width="90" height="40" as="geometry" />
        </mxCell>
        <mxCell id="QH9-boY5FQvzRluYM9Ri-22" value="&lt;span style=&quot;text-wrap: nowrap;&quot;&gt;redisObject&lt;/span&gt;" style="rounded=0;whiteSpace=wrap;html=1;" vertex="1" parent="1">
          <mxGeometry x="160" y="450" width="320" height="40" as="geometry" />
        </mxCell>
        <mxCell id="QH9-boY5FQvzRluYM9Ri-23" value="type" style="rounded=0;whiteSpace=wrap;html=1;" vertex="1" parent="1">
          <mxGeometry x="160" y="490" width="80" height="40" as="geometry" />
        </mxCell>
        <mxCell id="QH9-boY5FQvzRluYM9Ri-24" value="encoding" style="rounded=0;whiteSpace=wrap;html=1;" vertex="1" parent="1">
          <mxGeometry x="240" y="490" width="80" height="40" as="geometry" />
        </mxCell>
        <mxCell id="QH9-boY5FQvzRluYM9Ri-34" style="edgeStyle=orthogonalEdgeStyle;rounded=0;orthogonalLoop=1;jettySize=auto;html=1;curved=1;entryX=0;entryY=1;entryDx=0;entryDy=0;" edge="1" parent="1" target="QH9-boY5FQvzRluYM9Ri-32">
          <mxGeometry relative="1" as="geometry">
            <mxPoint x="730" y="570" as="targetPoint" />
            <mxPoint x="361" y="530" as="sourcePoint" />
            <Array as="points">
              <mxPoint x="361" y="580" />
              <mxPoint x="721" y="580" />
            </Array>
          </mxGeometry>
        </mxCell>
        <mxCell id="QH9-boY5FQvzRluYM9Ri-25" value="ptr" style="rounded=0;whiteSpace=wrap;html=1;" vertex="1" parent="1">
          <mxGeometry x="320" y="490" width="80" height="40" as="geometry" />
        </mxCell>
        <mxCell id="QH9-boY5FQvzRluYM9Ri-26" value="..." style="rounded=0;whiteSpace=wrap;html=1;" vertex="1" parent="1">
          <mxGeometry x="400" y="490" width="80" height="40" as="geometry" />
        </mxCell>
        <mxCell id="QH9-boY5FQvzRluYM9Ri-27" value="&lt;font style=&quot;font-size: 18px;&quot;&gt;embstr编码&lt;/font&gt;" style="text;html=1;align=center;verticalAlign=middle;resizable=0;points=[];autosize=1;strokeColor=none;fillColor=none;" vertex="1" parent="1">
          <mxGeometry x="25" y="475" width="110" height="40" as="geometry" />
        </mxCell>
        <mxCell id="QH9-boY5FQvzRluYM9Ri-28" value="len" style="rounded=0;whiteSpace=wrap;html=1;" vertex="1" parent="1">
          <mxGeometry x="480" y="490" width="80" height="40" as="geometry" />
        </mxCell>
        <mxCell id="QH9-boY5FQvzRluYM9Ri-29" value="alloc" style="rounded=0;whiteSpace=wrap;html=1;" vertex="1" parent="1">
          <mxGeometry x="560" y="490" width="80" height="40" as="geometry" />
        </mxCell>
        <mxCell id="QH9-boY5FQvzRluYM9Ri-30" value="&lt;span style=&quot;text-wrap: nowrap;&quot;&gt;sdshdr&lt;/span&gt;" style="rounded=0;whiteSpace=wrap;html=1;" vertex="1" parent="1">
          <mxGeometry x="480" y="450" width="240" height="40" as="geometry" />
        </mxCell>
        <mxCell id="QH9-boY5FQvzRluYM9Ri-31" value="flags" style="rounded=0;whiteSpace=wrap;html=1;" vertex="1" parent="1">
          <mxGeometry x="640" y="490" width="80" height="40" as="geometry" />
        </mxCell>
        <mxCell id="QH9-boY5FQvzRluYM9Ri-32" value="buf: &quot;hello\0&quot;" style="rounded=0;whiteSpace=wrap;html=1;" vertex="1" parent="1">
          <mxGeometry x="720" y="490" width="130" height="40" as="geometry" />
        </mxCell>
      </root>
    </mxGraphModel>
  </diagram>
</mxfile>
